<svg width="80" height="72" viewBox="0 0 80 72" fill="none" xmlns="http://www.w3.org/2000/svg">
<path d="M39.8539 35.7417C37.0599 35.7417 34.7805 34.7935 32.9423 33.043C29.7807 29.9066 29.1924 24.8739 29.0454 22.8316C27.7954 22.3939 26.9131 21.154 26.9131 19.7682V18.6741H29.1924V19.7682C29.1924 20.2787 29.6336 20.7893 30.2218 20.7893H31.3983V21.9563C31.3983 22.0292 31.3247 28.229 34.6335 31.5113C36.0305 32.8971 37.7216 33.5535 39.8539 33.5535C41.9862 33.5535 43.7509 32.8971 45.0743 31.5113C48.3831 28.229 48.3096 22.0292 48.3096 21.9563V20.7893H49.486C50.0007 20.7893 50.5154 20.3517 50.5154 19.7682V18.6741H52.7947V19.7682C52.7947 21.154 51.9124 22.3939 50.6624 22.8316C50.5154 24.8739 49.9272 29.9066 46.7655 33.043C44.9273 34.8664 42.6479 35.7417 39.8539 35.7417Z" fill="#252E37"/>
<path d="M4.70557 56.5992L9.11721 59.9544L9.70543 57.5474L5.36731 54.3381L4.70557 56.5992Z" fill="#252E37"/>
<path d="M3.45898 61.0524L7.94415 64.4805L8.45885 62.2923V62.0735L4.12073 58.7913L3.45898 61.0524Z" fill="#252E37"/>
<path d="M2.94336 66.075L6.84031 68.9925L7.42853 66.5856L3.6051 63.741L2.94336 66.075Z" fill="#252E37"/>
<path d="M74.3401 54.3381L70.002 57.5474L70.5902 59.9544L75.0018 56.5992L74.3401 54.3381Z" fill="#252E37"/>
<path d="M75.5855 58.7913L71.1738 62.0735V62.2923L71.762 64.4805L76.2472 61.0524L75.5855 58.7913Z" fill="#252E37"/>
<path d="M76.1027 63.741L72.2793 66.5856L72.8675 68.9925L76.7645 66.075L76.1027 63.741Z" fill="#252E37"/>
<path d="M0 71.9875H2.35287L8.45564 47.4072H6.17629L0 71.9875Z" fill="#252E37"/>
<path d="M41.2478 66.1647L40.8802 65.3624L39.8508 62.1531L37.2038 54.2028L37.1303 53.911V53.8381L35.7333 50.41L29.7776 35.8223L27.6453 36.6975L34.9245 54.3487V54.4216L34.998 54.6404L37.9391 63.5389L25.8806 52.4523L29.9246 47.4195L23.9689 44.7937L24.9983 37.7187L6.76351 44.8667L6.17529 47.4195H8.45464L8.67522 46.5442L22.2043 41.2197L21.469 46.1066L26.3218 48.2948L22.7925 52.6711L38.1597 66.8212L38.6744 67.3317H38.7479V67.4047L39.1891 67.6964H40.9537V67.3317L41.542 66.8212L41.2478 66.1647Z" fill="#252E37"/>
<path d="M79.706 71.9996H77.3532L71.0298 46.544L57.5008 41.2195L58.2361 46.1064L53.3833 48.2945L56.9126 52.6708L41.5453 66.8209L40.9571 67.3315L40.8101 67.4774L40.516 67.6962H38.7513V67.3315L38.1631 66.8209L38.8248 65.3622L39.8542 62.1529L42.5747 53.9108V53.8379L42.6483 53.619L49.9275 35.822L52.0598 36.6973L44.7805 54.4214L41.7659 63.5387L53.8244 52.452L49.7804 47.4193L55.7361 44.7935L54.7067 37.7184L72.9415 44.8664L79.706 71.9996Z" fill="#252E37"/>
<path d="M39.8504 36.5576L34.4829 39.7669L38.8946 44.1432H40.7327L42.2768 42.6115L45.1444 39.7669L39.8504 36.5576ZM38.1593 40.2045L39.8504 39.1834L41.5415 40.2045L39.8504 41.8821L38.1593 40.2045Z" fill="#252E37"/>
<path d="M39.706 42.5335L39.3384 44.2111L37.2061 54.2037L37.1326 54.8601L36.0297 54.6413H35.0003L34.9268 54.4225V54.3496L35.7356 50.4109L37.3532 42.6065L37.5002 42.0229L39.706 42.5335Z" fill="#252E37"/>
<path d="M42.2035 42.0748L39.9727 42.5386L42.5816 54.8882L44.8124 54.4244L42.2035 42.0748Z" fill="#252E37"/>
<path d="M41.0279 65.7268H38.7485V71.9266H41.0279V65.7268Z" fill="#252E37"/>
<path d="M39.8574 13.4207L15.814 8.02325V5.39746L39.8574 0L63.9009 5.39746V7.95031L39.8574 13.4207ZM20.3727 6.71035L39.8574 11.0867L59.3422 6.71035L39.8574 2.33403L20.3727 6.71035Z" fill="#252E37"/>
<path d="M39.8596 19.4127C35.6685 19.4127 31.4775 18.3916 27.8011 16.4222L27.2129 16.1305V9.34717H29.4922V14.7446C32.7274 16.3493 36.2568 17.1516 39.8596 17.1516C43.4624 17.1516 47.0653 16.3493 50.227 14.7446V9.34717H52.5063V16.1305L51.9181 16.4222C48.2417 18.3916 44.0507 19.4127 39.8596 19.4127Z" fill="#252E37"/>
<path d="M60.5196 7.74316H58.2402V17.9546H60.5196V7.74316Z" fill="#252E37"/>
<path d="M27.208 60.2371H15.3701V62.4982H27.208V60.2371Z" fill="#252E37"/>
<path d="M54.7789 60.2368V64.1755L53.6024 65.2696L52.4995 64.1755V60.2368H54.7789Z" fill="#252E37"/>
<path d="M53.5997 68.1843C54.4525 68.1843 55.1438 67.4985 55.1438 66.6526C55.1438 65.8066 54.4525 65.1208 53.5997 65.1208C52.747 65.1208 52.0557 65.8066 52.0557 66.6526C52.0557 67.4985 52.747 68.1843 53.5997 68.1843Z" fill="#252E37"/>
<path d="M64.2586 60.2368V64.1755L63.1557 65.2696L62.0527 64.1755V60.2368H64.2586Z" fill="#252E37"/>
<path d="M63.1525 68.1843C64.0052 68.1843 64.6965 67.4985 64.6965 66.6526C64.6965 65.8066 64.0052 65.1208 63.1525 65.1208C62.2997 65.1208 61.6084 65.8066 61.6084 66.6526C61.6084 67.4985 62.2997 68.1843 63.1525 68.1843Z" fill="#252E37"/>
<path d="M59.565 60.2368V64.1755L58.3886 65.2696L57.2856 64.1755V60.2368H59.565Z" fill="#252E37"/>
<path d="M58.3854 68.1843C59.2382 68.1843 59.9295 67.4985 59.9295 66.6526C59.9295 65.8066 59.2382 65.1208 58.3854 65.1208C57.5326 65.1208 56.8413 65.8066 56.8413 66.6526C56.8413 67.4985 57.5326 68.1843 58.3854 68.1843Z" fill="#252E37"/>
</svg>
